<svg width="72" height="72" viewBox="0 0 72 72" fill="none" xmlns="http://www.w3.org/2000/svg">
<rect width="72" height="72" rx="16" fill="#CF68FF"/>
<path d="M52.5 25.5H22.5C22.1022 25.5 21.7206 25.342 21.4393 25.0607C21.158 24.7794 21 24.3978 21 24C21 23.6022 21.158 23.2206 21.4393 22.9393C21.7206 22.658 22.1022 22.5 22.5 22.5H48C48.3978 22.5 48.7794 22.342 49.0607 22.0607C49.342 21.7794 49.5 21.3978 49.5 21C49.5 20.6022 49.342 20.2206 49.0607 19.9393C48.7794 19.658 48.3978 19.5 48 19.5H22.5C21.3065 19.5 20.1619 19.9741 19.318 20.818C18.4741 21.6619 18 22.8065 18 24V48C18 49.1935 18.4741 50.3381 19.318 51.182C20.1619 52.0259 21.3065 52.5 22.5 52.5H52.5C53.2957 52.5 54.0587 52.1839 54.6213 51.6213C55.1839 51.0587 55.5 50.2956 55.5 49.5V28.5C55.5 27.7044 55.1839 26.9413 54.6213 26.3787C54.0587 25.8161 53.2957 25.5 52.5 25.5ZM45.75 40.5C45.305 40.5 44.87 40.368 44.5 40.1208C44.13 39.8736 43.8416 39.5222 43.6713 39.111C43.501 38.6999 43.4564 38.2475 43.5432 37.811C43.63 37.3746 43.8443 36.9737 44.159 36.659C44.4737 36.3443 44.8746 36.13 45.311 36.0432C45.7475 35.9564 46.1999 36.001 46.611 36.1713C47.0222 36.3416 47.3736 36.63 47.6208 37C47.868 37.37 48 37.805 48 38.25C48 38.8467 47.7629 39.419 47.341 39.841C46.919 40.2629 46.3467 40.5 45.75 40.5Z" fill="white"/>
</svg>
