<svg width="24" height="25" viewBox="0 0 24 25" fill="none" xmlns="http://www.w3.org/2000/svg">
<path d="M20.9832 11.2044L5.25003 2.20249C5.02067 2.06874 4.75992 1.99826 4.49441 1.99826C4.2289 1.99826 3.96815 2.06874 3.73878 2.20249C3.51281 2.33206 3.32532 2.51935 3.19552 2.7452C3.06571 2.97104 2.99825 3.22732 3.00003 3.4878V21.5122C2.99929 21.7724 3.06764 22.0281 3.19809 22.2533C3.32854 22.4785 3.51642 22.665 3.74253 22.7937C3.9719 22.9275 4.23265 22.998 4.49816 22.998C4.76367 22.998 5.02442 22.9275 5.25378 22.7937L20.9832 13.7937C21.2155 13.6664 21.4093 13.4789 21.5443 13.251C21.6792 13.0231 21.7505 12.763 21.7505 12.4981C21.7505 12.2332 21.6792 11.9732 21.5443 11.7452C21.4093 11.5173 21.2155 11.3298 20.9832 11.2025V11.2044ZM13.5 13.5603L15.2738 15.334L6.97691 20.0834L13.5 13.5603ZM6.97503 4.91561L15.2747 9.66592L13.5 11.4397L6.97503 4.91561ZM16.6228 14.5625L14.5603 12.5L16.6228 10.4375L20.2257 12.5L16.6228 14.5625Z" fill="white"/>
</svg>
