<svg width="100" height="18" viewBox="0 0 100 18" fill="none" xmlns="http://www.w3.org/2000/svg">
<path d="M3.816 17.824H0.288V0.505999H3.858V2.368C3.97 2.09733 4.21267 1.78933 4.586 1.444C4.95933 1.09867 5.44467 0.8 6.042 0.548C6.64867 0.296 7.33933 0.17 8.114 0.17C9.206 0.17 10.158 0.436 10.97 0.967999C11.782 1.5 12.4073 2.228 12.846 3.152C13.294 4.06667 13.518 5.10267 13.518 6.26C13.518 7.41733 13.2847 8.458 12.818 9.382C12.3513 10.2967 11.7027 11.02 10.872 11.552C10.0413 12.0747 9.07533 12.336 7.974 12.336C7.14333 12.336 6.42933 12.1867 5.832 11.888C5.23467 11.5893 4.768 11.2533 4.432 10.88C4.096 10.5067 3.89067 10.2127 3.816 9.998V17.824ZM10.032 6.26C10.032 5.616 9.892 5.05133 9.612 4.566C9.34133 4.07133 8.97733 3.68867 8.52 3.418C8.06267 3.138 7.554 2.998 6.994 2.998C6.406 2.998 5.874 3.138 5.398 3.418C4.922 3.698 4.544 4.08533 4.264 4.58C3.99333 5.06533 3.858 5.62533 3.858 6.26C3.858 6.89467 3.99333 7.45933 4.264 7.954C4.544 8.43933 4.922 8.822 5.398 9.102C5.874 9.37267 6.406 9.508 6.994 9.508C7.554 9.508 8.06267 9.37267 8.52 9.102C8.97733 8.83133 9.34133 8.45333 9.612 7.968C9.892 7.47333 10.032 6.904 10.032 6.26ZM24.8633 12V9.998C24.7793 10.2033 24.5646 10.4927 24.2193 10.866C23.8739 11.2393 23.4073 11.58 22.8193 11.888C22.2406 12.1867 21.5593 12.336 20.7753 12.336C19.6739 12.336 18.6986 12.0747 17.8493 11.552C16.9999 11.02 16.3326 10.2967 15.8473 9.382C15.3713 8.458 15.1333 7.41733 15.1333 6.26C15.1333 5.10267 15.3713 4.06667 15.8473 3.152C16.3326 2.228 16.9999 1.5 17.8493 0.967999C18.6986 0.436 19.6739 0.17 20.7753 0.17C21.5406 0.17 22.2032 0.300666 22.7632 0.562C23.3326 0.814 23.7899 1.11267 24.1353 1.458C24.4899 1.794 24.7186 2.09733 24.8213 2.368V0.505999H28.3493V12H24.8633ZM18.6193 6.26C18.6193 6.904 18.7639 7.47333 19.0533 7.968C19.3426 8.45333 19.7253 8.83133 20.2013 9.102C20.6773 9.37267 21.1953 9.508 21.7553 9.508C22.3433 9.508 22.8659 9.37267 23.3233 9.102C23.7806 8.822 24.1399 8.43933 24.4013 7.954C24.6719 7.45933 24.8073 6.89467 24.8073 6.26C24.8073 5.62533 24.6719 5.06533 24.4013 4.58C24.1399 4.08533 23.7806 3.698 23.3233 3.418C22.8659 3.138 22.3433 2.998 21.7553 2.998C21.1953 2.998 20.6773 3.138 20.2013 3.418C19.7253 3.68867 19.3426 4.07133 19.0533 4.566C18.7639 5.05133 18.6193 5.616 18.6193 6.26ZM36.6725 8.878L40.0745 0.505999H43.5885L35.7345 17.824H32.1645L34.8105 12L30.0365 0.505999H33.5925L36.6725 8.878ZM52.4404 0.17C53.2244 0.17 53.9897 0.333333 54.7364 0.659999C55.4831 0.977333 56.0944 1.486 56.5704 2.186C57.0557 2.886 57.2984 3.80067 57.2984 4.93V12H53.7284V5.546C53.7284 4.60333 53.5044 3.90333 53.0564 3.446C52.6177 2.98867 52.0391 2.76 51.3204 2.76C50.8537 2.76 50.4057 2.89067 49.9764 3.152C49.5564 3.404 49.2111 3.75867 48.9404 4.216C48.6791 4.664 48.5484 5.17733 48.5484 5.756V12H44.9924V0.505999H48.5484V2.34C48.6511 2.02267 48.8844 1.696 49.2484 1.36C49.6124 1.024 50.0744 0.743999 50.6344 0.519999C51.1944 0.286666 51.7964 0.17 52.4404 0.17ZM65.7034 12.336C64.4808 12.336 63.3888 12.0747 62.4274 11.552C61.4754 11.0293 60.7288 10.3153 60.1874 9.41C59.6461 8.49533 59.3754 7.45467 59.3754 6.288C59.3754 5.12133 59.6461 4.08067 60.1874 3.166C60.7288 2.242 61.4754 1.514 62.4274 0.981999C63.3888 0.440666 64.4808 0.17 65.7034 0.17C66.9354 0.17 68.0228 0.440666 68.9654 0.981999C69.9081 1.514 70.6454 2.242 71.1774 3.166C71.7094 4.08067 71.9754 5.12133 71.9754 6.288C71.9754 7.45467 71.7094 8.49533 71.1774 9.41C70.6454 10.3153 69.9081 11.0293 68.9654 11.552C68.0228 12.0747 66.9354 12.336 65.7034 12.336ZM65.7034 9.382C66.2914 9.382 66.8001 9.25133 67.2294 8.99C67.6681 8.71933 68.0041 8.35067 68.2374 7.884C68.4801 7.408 68.6014 6.87133 68.6014 6.274C68.6014 5.67667 68.4801 5.14 68.2374 4.664C68.0041 4.188 67.6681 3.81467 67.2294 3.544C66.8001 3.264 66.2914 3.124 65.7034 3.124C65.1154 3.124 64.6021 3.264 64.1634 3.544C63.7341 3.81467 63.3981 4.188 63.1554 4.664C62.9128 5.14 62.7914 5.67667 62.7914 6.274C62.7914 6.87133 62.9128 7.408 63.1554 7.884C63.3981 8.35067 63.7341 8.71933 64.1634 8.99C64.6021 9.25133 65.1154 9.382 65.7034 9.382ZM82.7202 4.594L79.9482 12H76.5742L73.0322 0.505999H76.8122L78.7442 8.178L81.4742 0.729999H83.9802L86.6822 8.178L88.6282 0.505999H92.4082L88.8802 12H85.5062L82.7202 4.594ZM96.8351 12.336C96.2097 12.336 95.6731 12.112 95.2251 11.664C94.7771 11.216 94.5531 10.6793 94.5531 10.054C94.5531 9.41 94.7771 8.864 95.2251 8.416C95.6731 7.968 96.2097 7.744 96.8351 7.744C97.4791 7.744 98.0204 7.968 98.4591 8.416C98.9071 8.864 99.1311 9.41 99.1311 10.054C99.1311 10.6793 98.9071 11.216 98.4591 11.664C98.0204 12.112 97.4791 12.336 96.8351 12.336Z" fill="url(#paint0_linear_122_591)"/>
<defs>
<linearGradient id="paint0_linear_122_591" x1="14.5" y1="5" x2="100" y2="20" gradientUnits="userSpaceOnUse">
<stop stop-color="#5A95FF"/>
<stop offset="1" stop-color="#FF5AEF"/>
</linearGradient>
</defs>
</svg>
