<svg width="72" height="72" viewBox="0 0 72 72" fill="none" xmlns="http://www.w3.org/2000/svg">
<rect width="72" height="72" rx="16" fill="#F8A543"/>
<path d="M52.5 21H19.5C18.7044 21 17.9413 21.3161 17.3787 21.8787C16.8161 22.4413 16.5 23.2044 16.5 24V48C16.5 48.7956 16.8161 49.5587 17.3787 50.1213C17.9413 50.6839 18.7044 51 19.5 51H52.5C53.2957 51 54.0587 50.6839 54.6213 50.1213C55.1839 49.5587 55.5 48.7956 55.5 48V24C55.5 23.2044 55.1839 22.4413 54.6213 21.8787C54.0587 21.3161 53.2957 21 52.5 21ZM24 43.5C24 43.8978 23.842 44.2794 23.5607 44.5607C23.2794 44.842 22.8978 45 22.5 45C22.1022 45 21.7206 44.842 21.4393 44.5607C21.158 44.2794 21 43.8978 21 43.5V28.5C21 28.1022 21.158 27.7206 21.4393 27.4393C21.7206 27.158 22.1022 27 22.5 27C22.8978 27 23.2794 27.158 23.5607 27.4393C23.842 27.7206 24 28.1022 24 28.5V43.5ZM37.7438 36.0356L35.4263 36.7856L36.8587 38.7544C36.9746 38.9144 37.0578 39.0957 37.1036 39.2879C37.1494 39.4801 37.1568 39.6795 37.1256 39.8745C37.0943 40.0696 37.025 40.2567 36.9214 40.4249C36.8179 40.5932 36.6822 40.7395 36.5222 40.8553C36.3621 40.9712 36.1808 41.0544 35.9886 41.1001C35.7964 41.1459 35.5971 41.1534 35.402 41.1222C35.2069 41.0909 35.0199 41.0215 34.8516 40.918C34.6833 40.8145 34.5371 40.6788 34.4212 40.5188L33 38.5519L31.5694 40.5225C31.3354 40.8457 30.9826 41.0628 30.5886 41.1259C30.1946 41.189 29.7917 41.093 29.4684 40.8591C29.1452 40.6251 28.9282 40.2723 28.865 39.8783C28.8019 39.4843 28.8979 39.0814 29.1319 38.7581L30.5644 36.7894L28.2469 36.0394C28.0596 35.9778 27.8863 35.88 27.7369 35.7514C27.5874 35.6229 27.4648 35.4662 27.3759 35.2903C27.1964 34.9349 27.1654 34.5229 27.2897 34.1447C27.3512 33.9574 27.4491 33.7841 27.5776 33.6347C27.7061 33.4852 27.8629 33.3626 28.0388 33.2737C28.3941 33.0942 28.8062 33.0632 29.1844 33.1875L31.5 33.9375V31.5C31.5 31.1022 31.658 30.7206 31.9393 30.4393C32.2206 30.158 32.6022 30 33 30C33.3978 30 33.7794 30.158 34.0607 30.4393C34.342 30.7206 34.5 31.1022 34.5 31.5V33.9375L36.8156 33.1875C37.0029 33.1259 37.2004 33.1019 37.397 33.1167C37.5935 33.1314 37.7853 33.1848 37.9612 33.2737C38.1371 33.3626 38.2939 33.4852 38.4224 33.6347C38.5509 33.7841 38.6488 33.9574 38.7103 34.1447C38.7719 34.3319 38.7959 34.5295 38.7812 34.7261C38.7664 34.9226 38.713 35.1143 38.6241 35.2903C38.5352 35.4662 38.4126 35.6229 38.2631 35.7514C38.1137 35.88 37.9404 35.9778 37.7531 36.0394L37.7438 36.0356ZM51.2438 36.0356L48.9263 36.7856L50.3587 38.7544C50.4746 38.9144 50.5578 39.0957 50.6036 39.2879C50.6494 39.4801 50.6568 39.6795 50.6256 39.8745C50.5943 40.0696 50.525 40.2567 50.4214 40.4249C50.3179 40.5932 50.1822 40.7395 50.0222 40.8553C49.8621 40.9712 49.6808 41.0544 49.4886 41.1001C49.2964 41.1459 49.0971 41.1534 48.902 41.1222C48.7069 41.0909 48.5199 41.0215 48.3516 40.918C48.1833 40.8145 48.0371 40.6788 47.9212 40.5188L46.5 38.5519L45.0694 40.5225C44.8354 40.8457 44.4826 41.0628 44.0886 41.1259C43.6946 41.189 43.2917 41.093 42.9684 40.8591C42.6452 40.6251 42.4282 40.2723 42.365 39.8783C42.3019 39.4843 42.3979 39.0814 42.6319 38.7581L44.0644 36.7894L41.7469 36.0394C41.5596 35.9778 41.3863 35.88 41.2369 35.7514C41.0874 35.6229 40.9648 35.4662 40.8759 35.2903C40.6964 34.9349 40.6654 34.5229 40.7897 34.1447C40.8512 33.9574 40.9491 33.7841 41.0776 33.6347C41.2061 33.4852 41.3629 33.3626 41.5388 33.2737C41.8941 33.0942 42.3062 33.0632 42.6844 33.1875L45 33.9375V31.5C45 31.1022 45.158 30.7206 45.4393 30.4393C45.7206 30.158 46.1022 30 46.5 30C46.8978 30 47.2794 30.158 47.5607 30.4393C47.842 30.7206 48 31.1022 48 31.5V33.9375L50.3156 33.1875C50.5029 33.1259 50.7004 33.1019 50.897 33.1167C51.0935 33.1314 51.2853 33.1848 51.4612 33.2737C51.6371 33.3626 51.7939 33.4852 51.9224 33.6347C52.0509 33.7841 52.1488 33.9574 52.2103 34.1447C52.2719 34.3319 52.2959 34.5295 52.2812 34.7261C52.2664 34.9226 52.213 35.1143 52.1241 35.2903C52.0352 35.4662 51.9126 35.6229 51.7631 35.7514C51.6137 35.88 51.4404 35.9778 51.2531 36.0394L51.2438 36.0356Z" fill="white"/>
</svg>
