<svg width="72" height="72" viewBox="0 0 72 72" fill="none" xmlns="http://www.w3.org/2000/svg">
<rect width="72" height="72" rx="16" fill="#6889FF"/>
<path d="M54 25.5H51V24C51 22.8065 50.5259 21.6619 49.682 20.818C48.8381 19.9741 47.6935 19.5 46.5 19.5H19.5C18.3065 19.5 17.1619 19.9741 16.318 20.818C15.4741 21.6619 15 22.8065 15 24V42C15 43.1935 15.4741 44.3381 16.318 45.182C17.1619 46.0259 18.3065 46.5 19.5 46.5H40.5V48C40.5 49.1935 40.9741 50.3381 41.818 51.182C42.6619 52.0259 43.8065 52.5 45 52.5H54C55.1935 52.5 56.3381 52.0259 57.182 51.182C58.0259 50.3381 58.5 49.1935 58.5 48V30C58.5 28.8065 58.0259 27.6619 57.182 26.818C56.3381 25.9741 55.1935 25.5 54 25.5ZM55.5 48C55.5 48.3978 55.342 48.7794 55.0607 49.0607C54.7794 49.342 54.3978 49.5 54 49.5H45C44.6022 49.5 44.2206 49.342 43.9393 49.0607C43.658 48.7794 43.5 48.3978 43.5 48V30C43.5 29.6022 43.658 29.2206 43.9393 28.9393C44.2206 28.658 44.6022 28.5 45 28.5H54C54.3978 28.5 54.7794 28.658 55.0607 28.9393C55.342 29.2206 55.5 29.6022 55.5 30V48ZM37.5 51C37.5 51.3978 37.342 51.7794 37.0607 52.0607C36.7794 52.342 36.3978 52.5 36 52.5H28.5C28.1022 52.5 27.7206 52.342 27.4393 52.0607C27.158 51.7794 27 51.3978 27 51C27 50.6022 27.158 50.2206 27.4393 49.9393C27.7206 49.658 28.1022 49.5 28.5 49.5H36C36.3978 49.5 36.7794 49.658 37.0607 49.9393C37.342 50.2206 37.5 50.6022 37.5 51ZM52.5 33C52.5 33.3978 52.342 33.7794 52.0607 34.0607C51.7794 34.342 51.3978 34.5 51 34.5H48C47.6022 34.5 47.2206 34.342 46.9393 34.0607C46.658 33.7794 46.5 33.3978 46.5 33C46.5 32.6022 46.658 32.2206 46.9393 31.9393C47.2206 31.658 47.6022 31.5 48 31.5H51C51.3978 31.5 51.7794 31.658 52.0607 31.9393C52.342 32.2206 52.5 32.6022 52.5 33Z" fill="white"/>
</svg>
